if (_typeface_js && _typeface_js.loadFace) _typeface_js.loadFace({"glyphs":{"S":{"x_min":64.625,"x_max":669.421875,"ha":731,"o":"m 380 937 l 503 923 l 630 870 l 630 721 l 501 785 l 387 802 l 284 773 l 242 689 l 290 600 l 398 550 l 491 513 l 578 460 l 644 381 l 669 267 l 643 147 l 572 60 l 469 6 l 345 -11 l 207 7 l 64 73 l 64 228 l 155 172 l 249 136 l 342 123 l 458 158 l 507 256 l 444 362 l 325 416 l 201 470 l 113 553 l 80 681 l 103 793 l 167 873 l 262 921 l 380 937 "},"a":{"x_min":41.484375,"x_max":666.53125,"ha":757,"o":"m 666 641 l 666 513 l 666 384 l 666 256 l 666 128 l 666 0 l 529 0 l 529 42 l 361 -11 l 234 13 l 132 82 l 65 189 l 41 321 l 64 453 l 129 558 l 228 627 l 355 653 l 447 638 l 529 598 l 529 641 l 666 641 m 379 112 l 529 174 l 529 320 l 529 466 l 379 528 l 275 500 l 204 426 l 177 321 l 204 216 l 275 140 l 379 112 "},"T":{"x_min":30.859375,"x_max":779.390625,"ha":810,"o":"m 779 790 l 632 790 l 486 790 l 486 678 l 486 565 l 486 452 l 486 338 l 486 225 l 486 112 l 486 0 l 324 0 l 324 112 l 324 225 l 324 338 l 324 452 l 324 565 l 324 678 l 324 790 l 177 790 l 30 790 l 30 926 l 155 926 l 280 926 l 405 926 l 529 926 l 654 926 l 779 926 l 779 790 "},"N":{"x_min":98.390625,"x_max":948.1875,"ha":1047,"o":"m 948 0 l 774 0 l 700 98 l 626 196 l 551 295 l 476 392 l 402 490 l 327 589 l 253 687 l 253 572 l 253 458 l 253 343 l 253 229 l 253 114 l 253 0 l 98 0 l 98 115 l 98 231 l 98 347 l 98 463 l 98 578 l 98 694 l 98 810 l 98 926 l 272 926 l 347 827 l 421 729 l 495 630 l 570 533 l 644 435 l 718 336 l 792 238 l 792 353 l 792 467 l 792 581 l 792 696 l 792 811 l 792 926 l 948 926 l 948 810 l 948 694 l 948 578 l 948 463 l 948 347 l 948 231 l 948 115 l 948 0 "},"K":{"x_min":101.28125,"x_max":866.203125,"ha":884,"o":"m 263 0 l 101 0 l 101 115 l 101 231 l 101 347 l 101 463 l 101 578 l 101 694 l 101 810 l 101 926 l 263 926 l 263 810 l 263 694 l 263 578 l 263 463 l 263 347 l 263 231 l 263 115 l 263 0 m 462 496 l 543 397 l 624 298 l 704 198 l 785 99 l 866 0 l 762 0 l 660 0 l 583 98 l 506 196 l 429 295 l 352 393 l 274 491 l 341 578 l 408 665 l 475 752 l 543 839 l 609 926 l 708 926 l 808 926 l 738 840 l 669 754 l 600 668 l 531 582 l 462 496 "},"d":{"x_min":41.484375,"x_max":666.53125,"ha":757,"o":"m 666 926 l 666 810 l 666 694 l 666 578 l 666 463 l 666 347 l 666 231 l 666 115 l 666 0 l 529 0 l 529 44 l 447 2 l 355 -11 l 228 13 l 129 82 l 64 189 l 41 321 l 65 453 l 132 558 l 234 627 l 361 653 l 529 599 l 529 708 l 529 817 l 529 926 l 666 926 m 379 112 l 529 174 l 529 320 l 529 466 l 379 528 l 275 500 l 204 426 l 177 321 l 204 216 l 275 140 l 379 112 "},"Y":{"x_min":22.1875,"x_max":882.59375,"ha":905,"o":"m 533 445 l 533 333 l 533 222 l 533 110 l 533 0 l 371 0 l 371 110 l 371 222 l 371 333 l 371 445 l 301 542 l 231 637 l 162 734 l 91 829 l 22 926 l 123 926 l 224 926 l 301 814 l 378 703 l 455 591 l 532 703 l 608 814 l 685 926 l 784 926 l 882 926 l 813 829 l 742 734 l 673 637 l 602 542 l 533 445 "},"E":{"x_min":101.28125,"x_max":688.71875,"ha":745,"o":"m 688 790 l 582 790 l 475 790 l 369 790 l 263 790 l 263 662 l 263 535 l 385 535 l 508 535 l 630 535 l 630 405 l 508 405 l 385 405 l 263 405 l 263 270 l 263 135 l 369 135 l 475 135 l 582 135 l 688 135 l 688 0 l 571 0 l 453 0 l 336 0 l 218 0 l 101 0 l 101 115 l 101 231 l 101 347 l 101 463 l 101 578 l 101 694 l 101 810 l 101 926 l 218 926 l 336 926 l 453 926 l 571 926 l 688 926 l 688 790 "},"j":{"x_min":-54.984375,"x_max":262.359375,"ha":352,"o":"m 176 896 l 262 810 l 176 724 l 89 810 l 176 896 m 245 578 l 245 448 l 245 317 l 245 187 l 245 55 l 245 -74 l 224 -193 l 165 -283 l 71 -339 l -54 -358 l -54 -231 l 59 -187 l 108 -64 l 108 63 l 108 192 l 108 321 l 108 450 l 108 578 l 245 578 "},"y":{"x_min":27.015625,"x_max":646.265625,"ha":673,"o":"m 407 0 l 372 -94 l 337 -190 l 302 -284 l 163 -284 l 197 -190 l 232 -94 l 267 0 l 226 107 l 187 214 l 146 320 l 107 427 l 66 534 l 27 641 l 172 641 l 213 525 l 254 410 l 295 295 l 336 180 l 377 295 l 418 410 l 459 525 l 500 641 l 646 641 l 606 534 l 566 427 l 526 320 l 487 214 l 446 107 l 407 0 "},"Z":{"x_min":46.296875,"x_max":795.78125,"ha":842,"o":"m 795 790 l 718 697 l 641 603 l 564 510 l 486 415 l 408 322 l 331 228 l 254 135 l 362 135 l 470 135 l 579 135 l 687 135 l 795 135 l 795 0 l 670 0 l 545 0 l 420 0 l 296 0 l 170 0 l 46 0 l 46 135 l 123 228 l 200 322 l 277 415 l 355 510 l 433 603 l 510 697 l 587 790 l 479 790 l 371 790 l 262 790 l 154 790 l 46 790 l 46 926 l 170 926 l 296 926 l 420 926 l 545 926 l 670 926 l 795 926 l 795 790 "},"u":{"x_min":95.5,"x_max":679.0625,"ha":784,"o":"m 679 641 l 679 513 l 679 384 l 679 256 l 679 128 l 679 0 l 542 0 l 542 43 l 460 2 l 368 -11 l 251 9 l 166 68 l 113 158 l 95 272 l 95 395 l 95 518 l 95 641 l 232 641 l 232 522 l 232 404 l 232 285 l 277 166 l 395 118 l 542 177 l 542 293 l 542 408 l 542 525 l 542 641 l 679 641 "},"k":{"x_min":94.53125,"x_max":720.546875,"ha":737,"o":"m 346 271 l 230 153 l 230 0 l 94 0 l 94 115 l 94 231 l 94 347 l 94 463 l 94 578 l 94 694 l 94 810 l 94 926 l 230 926 l 230 805 l 230 683 l 230 563 l 230 441 l 230 321 l 274 366 l 271 371 l 279 371 l 366 461 l 453 551 l 540 641 l 708 641 l 619 550 l 531 461 l 442 370 l 512 277 l 581 185 l 651 92 l 720 0 l 550 0 l 482 90 l 414 180 l 346 271 "},"g":{"x_min":41.484375,"x_max":666.53125,"ha":757,"o":"m 666 641 l 666 513 l 666 384 l 666 257 l 666 129 l 666 0 l 643 -119 l 579 -211 l 484 -270 l 365 -290 l 245 -270 l 148 -215 l 148 -90 l 237 -153 l 349 -175 l 475 -125 l 529 0 l 529 75 l 447 34 l 355 20 l 228 42 l 129 107 l 64 206 l 41 336 l 65 466 l 132 566 l 234 630 l 361 653 l 529 599 l 529 641 l 666 641 m 379 134 l 529 191 l 529 336 l 529 481 l 379 539 l 275 512 l 204 440 l 177 336 l 204 232 l 275 161 l 379 134 "},"t":{"x_min":50.15625,"x_max":396.4375,"ha":437,"o":"m 233 441 l 233 282 l 281 160 l 396 115 l 396 -11 l 270 7 l 175 63 l 116 153 l 96 272 l 96 441 l 50 441 l 50 555 l 96 555 l 96 655 l 96 757 l 233 757 l 233 655 l 233 555 l 396 555 l 396 441 l 233 441 "},"e":{"x_min":41.484375,"x_max":716.6875,"ha":757,"o":"m 716 289 l 582 289 l 449 289 l 315 289 l 182 289 l 222 193 l 299 131 l 400 108 l 519 133 l 616 202 l 616 73 l 512 9 l 383 -11 l 245 13 l 137 82 l 66 189 l 41 321 l 67 453 l 138 558 l 245 627 l 379 653 l 487 636 l 579 590 l 652 515 l 699 413 l 716 289 m 181 381 l 310 381 l 439 381 l 569 381 l 496 509 l 379 555 l 249 507 l 181 381 "},"J":{"x_min":-0.96875,"x_max":540.171875,"ha":641,"o":"m 540 926 l 540 802 l 540 680 l 540 556 l 540 434 l 540 310 l 517 177 l 456 75 l 360 10 l 234 -11 l 105 9 l 0 68 l 0 246 l 95 174 l 197 148 l 324 191 l 378 326 l 378 445 l 378 566 l 378 685 l 378 806 l 378 926 l 540 926 "},"W":{"x_min":34.71875,"x_max":1354.28125,"ha":1389,"o":"m 1064 0 l 902 0 l 868 115 l 833 232 l 798 348 l 763 463 l 729 580 l 694 696 l 659 580 l 625 463 l 590 348 l 555 232 l 520 115 l 486 0 l 324 0 l 287 115 l 251 231 l 215 347 l 179 463 l 142 578 l 107 694 l 70 810 l 34 926 l 196 926 l 231 810 l 266 693 l 300 577 l 335 462 l 370 345 l 405 229 l 439 345 l 474 462 l 509 577 l 544 693 l 578 810 l 613 926 l 775 926 l 810 810 l 844 693 l 879 577 l 914 462 l 949 345 l 983 229 l 1018 345 l 1053 462 l 1088 577 l 1122 693 l 1157 810 l 1192 926 l 1354 926 l 1317 810 l 1281 694 l 1245 578 l 1209 463 l 1172 347 l 1137 231 l 1100 115 l 1064 0 "},"v":{"x_min":27.015625,"x_max":646.265625,"ha":673,"o":"m 407 0 l 267 0 l 226 107 l 187 214 l 146 320 l 107 427 l 66 534 l 27 641 l 172 641 l 213 525 l 254 410 l 295 295 l 336 180 l 377 295 l 418 410 l 459 525 l 500 641 l 646 641 l 606 534 l 566 427 l 526 320 l 487 214 l 446 107 l 407 0 "},"s":{"x_min":63.65625,"x_max":583.578125,"ha":641,"o":"m 326 652 l 436 639 l 548 595 l 548 464 l 429 519 l 328 536 l 215 466 l 339 383 l 450 351 l 544 292 l 583 188 l 548 79 l 454 11 l 313 -11 l 190 3 l 63 57 l 64 192 l 190 129 l 319 107 l 446 189 l 399 253 l 305 281 l 192 316 l 109 375 l 78 467 l 109 570 l 194 631 l 326 652 "},"B":{"x_min":101.28125,"x_max":777.453125,"ha":821,"o":"m 101 926 l 211 926 l 320 926 l 430 926 l 547 907 l 638 857 l 698 781 l 719 685 l 687 572 l 602 493 l 693 441 l 755 361 l 777 261 l 754 157 l 690 74 l 592 19 l 467 0 l 345 0 l 223 0 l 101 0 l 101 115 l 101 231 l 101 347 l 101 463 l 101 578 l 101 694 l 101 810 l 101 926 m 263 801 l 263 672 l 263 544 l 424 544 l 519 581 l 557 672 l 519 762 l 424 801 l 263 801 m 263 424 l 263 324 l 263 224 l 263 124 l 361 124 l 461 124 l 571 168 l 615 274 l 571 381 l 461 424 l 361 424 l 263 424 "},"H":{"x_min":101.28125,"x_max":913.453125,"ha":1016,"o":"m 913 0 l 745 0 l 745 132 l 745 263 l 745 395 l 626 395 l 507 395 l 388 395 l 270 395 l 270 263 l 270 132 l 270 0 l 101 0 l 101 115 l 101 231 l 101 347 l 101 463 l 101 578 l 101 694 l 101 810 l 101 926 l 270 926 l 270 799 l 270 672 l 270 545 l 388 545 l 507 545 l 626 545 l 745 545 l 745 672 l 745 799 l 745 926 l 913 926 l 913 810 l 913 694 l 913 578 l 913 463 l 913 347 l 913 231 l 913 115 l 913 0 "},"c":{"x_min":46.296875,"x_max":590.328125,"ha":637,"o":"m 373 653 l 493 631 l 590 568 l 590 428 l 501 498 l 389 523 l 286 496 l 212 425 l 183 321 l 212 217 l 286 145 l 389 118 l 501 143 l 590 213 l 590 73 l 493 9 l 373 -11 l 244 13 l 140 82 l 71 189 l 46 321 l 71 453 l 140 558 l 244 627 l 373 653 "},"q":{"x_min":41.484375,"x_max":666.53125,"ha":757,"o":"m 666 641 l 666 525 l 666 409 l 666 294 l 666 178 l 666 62 l 666 -53 l 666 -168 l 666 -284 l 529 -284 l 529 -175 l 529 -66 l 529 42 l 361 -11 l 234 13 l 132 82 l 65 189 l 41 321 l 64 453 l 129 558 l 228 627 l 355 653 l 447 638 l 529 598 l 529 641 l 666 641 m 379 112 l 529 174 l 529 320 l 529 466 l 379 528 l 275 500 l 204 426 l 177 321 l 204 216 l 275 140 l 379 112 "},"b":{"x_min":91.640625,"x_max":716.6875,"ha":757,"o":"m 395 653 l 523 627 l 625 558 l 692 453 l 716 321 l 693 189 l 628 82 l 529 13 l 402 -11 l 310 2 l 228 43 l 228 0 l 91 0 l 91 115 l 91 231 l 91 347 l 91 463 l 91 578 l 91 694 l 91 810 l 91 926 l 228 926 l 228 817 l 228 708 l 228 599 l 395 653 m 379 112 l 481 140 l 552 216 l 579 321 l 552 426 l 481 500 l 379 528 l 228 466 l 228 320 l 228 174 l 379 112 "},"D":{"x_min":101.28125,"x_max":959.765625,"ha":991,"o":"m 101 926 l 225 926 l 350 926 l 474 926 l 603 910 l 719 865 l 817 793 l 893 701 l 942 589 l 959 463 l 942 336 l 893 224 l 817 132 l 719 60 l 603 15 l 474 0 l 350 0 l 225 0 l 101 0 l 101 115 l 101 231 l 101 347 l 101 463 l 101 578 l 101 694 l 101 810 l 101 926 m 263 779 l 263 653 l 263 525 l 263 399 l 263 272 l 263 145 l 368 145 l 474 145 l 595 169 l 694 235 l 761 335 l 785 463 l 761 589 l 694 689 l 595 755 l 474 779 l 368 779 l 263 779 "},"I":{"x_min":110.921875,"x_max":272.984375,"ha":384,"o":"m 272 0 l 110 0 l 110 115 l 110 231 l 110 347 l 110 463 l 110 578 l 110 694 l 110 810 l 110 926 l 272 926 l 272 810 l 272 694 l 272 578 l 272 463 l 272 347 l 272 231 l 272 115 l 272 0 "},"G":{"x_min":30.859375,"x_max":879.703125,"ha":952,"o":"m 536 937 l 653 925 l 772 888 l 879 823 l 879 654 l 782 724 l 668 770 l 545 787 l 408 762 l 300 695 l 230 592 l 205 462 l 230 329 l 300 223 l 408 153 l 541 128 l 649 148 l 743 203 l 743 294 l 743 384 l 631 384 l 520 384 l 520 505 l 640 505 l 760 505 l 879 505 l 879 375 l 879 245 l 879 114 l 772 46 l 651 2 l 524 -11 l 391 4 l 273 52 l 173 124 l 97 219 l 48 334 l 30 463 l 47 587 l 93 700 l 168 796 l 269 871 l 392 920 l 536 937 "},"z":{"x_min":53.046875,"x_max":589.359375,"ha":641,"o":"m 589 517 l 498 418 l 408 320 l 318 222 l 228 124 l 349 124 l 468 124 l 589 124 l 589 0 l 455 0 l 321 0 l 187 0 l 53 0 l 53 124 l 143 222 l 233 320 l 324 418 l 414 517 l 294 517 l 173 517 l 53 517 l 53 641 l 187 641 l 321 641 l 455 641 l 589 641 l 589 517 "},"U":{"x_min":84.890625,"x_max":871.984375,"ha":958,"o":"m 871 926 l 871 817 l 871 707 l 871 598 l 871 488 l 871 379 l 851 248 l 795 140 l 709 58 l 601 6 l 478 -11 l 354 6 l 245 58 l 161 140 l 105 248 l 84 379 l 84 488 l 84 598 l 84 707 l 84 817 l 84 926 l 253 926 l 253 817 l 253 707 l 253 598 l 253 488 l 253 379 l 283 251 l 363 167 l 478 136 l 593 167 l 673 251 l 704 379 l 704 488 l 704 598 l 704 707 l 704 817 l 704 926 l 871 926 "},"w":{"x_min":27.015625,"x_max":992.5625,"ha":1021,"o":"m 784 0 l 664 0 l 626 115 l 587 231 l 548 348 l 510 463 l 471 348 l 432 231 l 393 115 l 354 0 l 236 0 l 201 107 l 166 214 l 131 320 l 96 427 l 61 534 l 27 641 l 169 641 l 203 531 l 237 422 l 272 312 l 305 203 l 342 312 l 380 422 l 416 531 l 454 641 l 565 641 l 602 531 l 639 422 l 677 312 l 714 203 l 748 312 l 782 422 l 816 531 l 849 641 l 992 641 l 957 534 l 923 427 l 888 320 l 853 214 l 818 107 l 784 0 "},"F":{"x_min":101.28125,"x_max":688.71875,"ha":699,"o":"m 688 790 l 582 790 l 475 790 l 369 790 l 263 790 l 263 657 l 263 524 l 385 524 l 508 524 l 630 524 l 630 394 l 508 394 l 385 394 l 263 394 l 263 263 l 263 131 l 263 0 l 101 0 l 101 115 l 101 231 l 101 347 l 101 463 l 101 578 l 101 694 l 101 810 l 101 926 l 218 926 l 336 926 l 453 926 l 571 926 l 688 926 l 688 790 "},"r":{"x_min":96.453125,"x_max":581.640625,"ha":579,"o":"m 403 653 l 504 633 l 581 578 l 581 434 l 495 495 l 384 517 l 233 461 l 233 345 l 233 230 l 233 114 l 233 0 l 96 0 l 96 128 l 96 256 l 96 384 l 96 513 l 96 641 l 233 641 l 233 595 l 313 637 l 403 653 "},"x":{"x_min":27.015625,"x_max":678.109375,"ha":705,"o":"m 352 232 l 277 115 l 203 0 l 27 0 l 106 109 l 185 218 l 264 327 l 189 432 l 112 537 l 37 641 l 214 641 l 282 532 l 352 423 l 421 532 l 490 641 l 667 641 l 592 537 l 516 432 l 440 327 l 519 218 l 599 109 l 678 0 l 501 0 l 426 115 l 352 232 "},"V":{"x_min":48.234375,"x_max":940.46875,"ha":989,"o":"m 581 0 l 407 0 l 361 115 l 317 231 l 272 347 l 227 463 l 182 578 l 137 694 l 92 810 l 48 926 l 226 926 l 271 806 l 316 686 l 360 567 l 405 447 l 450 327 l 494 208 l 539 327 l 584 447 l 628 567 l 673 686 l 718 806 l 762 926 l 940 926 l 895 810 l 850 694 l 805 578 l 761 463 l 715 347 l 671 231 l 626 115 l 581 0 "},"Q":{"x_min":30.859375,"x_max":1010.890625,"ha":1042,"o":"m 1010 463 l 994 340 l 950 230 l 879 136 l 945 68 l 1010 0 l 843 0 l 784 60 l 660 6 l 520 -11 l 390 4 l 272 52 l 174 124 l 97 219 l 48 334 l 30 463 l 48 591 l 97 706 l 174 801 l 272 873 l 390 921 l 520 937 l 651 921 l 768 873 l 867 801 l 944 706 l 993 591 l 1010 463 m 520 138 l 672 177 l 590 262 l 509 347 l 678 347 l 765 255 l 817 350 l 836 463 l 811 591 l 743 694 l 643 762 l 520 787 l 398 762 l 298 694 l 230 591 l 205 463 l 230 334 l 298 231 l 398 163 l 520 138 "},"h":{"x_min":96.453125,"x_max":681,"ha":757,"o":"m 407 653 l 523 631 l 609 572 l 662 483 l 681 369 l 681 245 l 681 123 l 681 0 l 544 0 l 544 118 l 544 238 l 544 356 l 497 474 l 381 523 l 233 464 l 233 348 l 233 232 l 233 115 l 233 0 l 96 0 l 96 115 l 96 231 l 96 347 l 96 463 l 96 578 l 96 694 l 96 810 l 96 926 l 233 926 l 233 817 l 233 707 l 233 598 l 315 638 l 407 653 "},"M":{"x_min":102.25,"x_max":1071.65625,"ha":1173,"o":"m 1071 0 l 909 0 l 909 115 l 909 230 l 909 346 l 909 462 l 909 576 l 909 692 l 839 590 l 768 488 l 699 386 l 628 284 l 541 284 l 469 385 l 399 488 l 327 589 l 257 691 l 257 575 l 257 461 l 257 345 l 257 230 l 257 114 l 257 0 l 102 0 l 102 115 l 102 231 l 102 347 l 102 463 l 102 578 l 102 694 l 102 810 l 102 926 l 192 926 l 284 926 l 359 817 l 435 709 l 511 601 l 587 493 l 661 601 l 736 709 l 811 817 l 886 926 l 979 926 l 1071 926 l 1071 810 l 1071 694 l 1071 578 l 1071 463 l 1071 347 l 1071 231 l 1071 115 l 1071 0 "},"C":{"x_min":30.859375,"x_max":847.875,"ha":894,"o":"m 508 937 l 643 923 l 755 882 l 847 822 l 847 733 l 847 643 l 755 720 l 649 769 l 530 787 l 403 762 l 299 695 l 230 592 l 205 463 l 230 333 l 299 230 l 403 163 l 530 138 l 649 156 l 755 204 l 847 281 l 847 103 l 755 40 l 643 1 l 508 -11 l 381 4 l 267 52 l 170 124 l 95 219 l 48 334 l 30 463 l 48 591 l 95 706 l 170 801 l 267 873 l 381 921 l 508 937 "},"f":{"x_min":50.15625,"x_max":396.4375,"ha":437,"o":"m 396 937 l 396 810 l 281 765 l 233 643 l 233 555 l 396 555 l 396 441 l 233 441 l 233 330 l 233 220 l 233 109 l 233 0 l 96 0 l 96 109 l 96 220 l 96 330 l 96 441 l 50 441 l 50 555 l 96 555 l 96 653 l 116 772 l 175 861 l 270 918 l 396 937 "},"L":{"x_min":114.78125,"x_max":702.21875,"ha":726,"o":"m 276 150 l 382 150 l 489 150 l 596 150 l 702 150 l 702 0 l 584 0 l 466 0 l 350 0 l 232 0 l 114 0 l 114 115 l 114 231 l 114 347 l 114 463 l 114 578 l 114 694 l 114 810 l 114 926 l 276 926 l 276 796 l 276 667 l 276 538 l 276 408 l 276 279 l 276 150 "},"i":{"x_min":89.703125,"x_max":262.359375,"ha":352,"o":"m 176 896 l 262 810 l 176 724 l 89 810 l 176 896 m 245 0 l 108 0 l 108 115 l 108 231 l 108 347 l 108 463 l 108 578 l 245 578 l 245 463 l 245 347 l 245 231 l 245 115 l 245 0 "},"A":{"x_min":48.234375,"x_max":940.46875,"ha":989,"o":"m 305 252 l 257 126 l 210 0 l 48 0 l 92 115 l 137 231 l 182 347 l 227 463 l 272 578 l 317 694 l 361 810 l 407 926 l 581 926 l 626 810 l 671 694 l 715 578 l 761 463 l 805 347 l 850 231 l 895 115 l 940 0 l 778 0 l 731 126 l 683 252 l 557 252 l 432 252 l 305 252 m 494 783 l 459 683 l 423 585 l 388 486 l 353 387 l 493 387 l 635 387 l 599 486 l 565 585 l 529 683 l 494 783 "},"n":{"x_min":96.453125,"x_max":681,"ha":757,"o":"m 407 653 l 523 631 l 609 572 l 662 483 l 681 369 l 681 245 l 681 123 l 681 0 l 544 0 l 544 118 l 544 238 l 544 356 l 497 474 l 381 523 l 233 464 l 233 348 l 233 232 l 233 115 l 233 0 l 96 0 l 96 128 l 96 256 l 96 384 l 96 513 l 96 641 l 233 641 l 233 598 l 315 638 l 407 653 "},"O":{"x_min":30.859375,"x_max":1010.890625,"ha":1042,"o":"m 520 937 l 651 921 l 768 873 l 867 801 l 944 706 l 993 591 l 1010 463 l 993 334 l 944 219 l 867 124 l 768 52 l 651 4 l 520 -11 l 390 4 l 272 52 l 174 124 l 97 219 l 48 334 l 30 463 l 48 591 l 97 706 l 174 801 l 272 873 l 390 921 l 520 937 m 520 787 l 398 762 l 298 694 l 230 591 l 205 463 l 230 334 l 298 231 l 398 163 l 520 138 l 643 163 l 743 231 l 811 334 l 836 463 l 811 591 l 743 694 l 643 762 l 520 787 "}," ":{"x_min":0,"x_max":0,"ha":421},"X":{"x_min":22.1875,"x_max":913.453125,"ha":937,"o":"m 568 485 l 637 387 l 706 291 l 775 193 l 844 97 l 913 0 l 812 0 l 710 0 l 649 91 l 588 182 l 526 273 l 465 365 l 404 273 l 342 182 l 280 91 l 218 0 l 120 0 l 22 0 l 91 96 l 161 192 l 229 288 l 299 384 l 368 481 l 304 570 l 241 658 l 178 748 l 114 837 l 51 926 l 152 926 l 253 926 l 326 817 l 398 708 l 470 600 l 543 708 l 616 817 l 688 926 l 786 926 l 884 926 l 820 838 l 758 749 l 694 661 l 631 572 l 568 485 "},"P":{"x_min":101.28125,"x_max":745.625,"ha":789,"o":"m 101 926 l 215 926 l 327 926 l 441 926 l 560 902 l 656 839 l 721 746 l 745 631 l 721 517 l 656 423 l 560 360 l 441 337 l 263 337 l 263 224 l 263 112 l 263 0 l 101 0 l 101 115 l 101 231 l 101 347 l 101 463 l 101 578 l 101 694 l 101 810 l 101 926 m 263 790 l 263 684 l 263 578 l 263 472 l 422 472 l 535 518 l 581 631 l 535 744 l 422 790 l 263 790 "},"m":{"x_min":96.453125,"x_max":1144,"ha":1220,"o":"m 870 653 l 986 631 l 1072 572 l 1125 483 l 1144 369 l 1144 245 l 1144 123 l 1144 0 l 1007 0 l 1007 118 l 1007 238 l 1007 356 l 960 474 l 844 523 l 758 505 l 680 449 l 688 369 l 688 245 l 688 123 l 688 0 l 551 0 l 551 118 l 551 238 l 551 356 l 505 474 l 388 523 l 233 457 l 233 342 l 233 228 l 233 113 l 233 0 l 96 0 l 96 128 l 96 256 l 96 384 l 96 513 l 96 641 l 233 641 l 233 592 l 318 636 l 414 653 l 544 626 l 633 553 l 739 626 l 870 653 "},"l":{"x_min":100.3125,"x_max":400.296875,"ha":437,"o":"m 237 926 l 237 797 l 237 668 l 237 540 l 237 410 l 237 282 l 285 160 l 400 115 l 400 -11 l 273 7 l 179 63 l 120 153 l 100 272 l 100 403 l 100 534 l 100 664 l 100 795 l 100 926 l 237 926 "},"p":{"x_min":91.640625,"x_max":716.6875,"ha":757,"o":"m 395 653 l 523 627 l 625 558 l 692 453 l 716 321 l 693 189 l 628 82 l 529 13 l 402 -11 l 310 2 l 228 43 l 228 -65 l 228 -175 l 228 -284 l 91 -284 l 91 -168 l 91 -53 l 91 62 l 91 178 l 91 294 l 91 409 l 91 525 l 91 641 l 228 641 l 228 599 l 395 653 m 379 112 l 481 140 l 552 216 l 579 321 l 552 426 l 481 500 l 379 528 l 228 466 l 228 320 l 228 174 l 379 112 "},"R":{"x_min":109,"x_max":810.25,"ha":848,"o":"m 109 926 l 222 926 l 335 926 l 449 926 l 568 902 l 664 839 l 729 746 l 753 631 l 730 521 l 668 433 l 576 376 l 634 281 l 693 188 l 751 93 l 810 0 l 717 0 l 625 0 l 555 112 l 485 224 l 415 337 l 271 337 l 271 224 l 271 112 l 271 0 l 109 0 l 109 115 l 109 231 l 109 347 l 109 463 l 109 578 l 109 694 l 109 810 l 109 926 m 271 790 l 271 684 l 271 578 l 271 472 l 431 472 l 543 518 l 589 631 l 543 744 l 431 790 l 271 790 "},"o":{"x_min":41.484375,"x_max":716.6875,"ha":757,"o":"m 379 653 l 511 627 l 618 558 l 690 453 l 716 321 l 690 189 l 618 82 l 511 13 l 379 -11 l 245 13 l 138 82 l 67 189 l 41 321 l 67 453 l 138 558 l 245 627 l 379 653 m 379 528 l 276 500 l 204 426 l 177 321 l 204 216 l 276 140 l 379 112 l 480 140 l 552 216 l 579 321 l 552 426 l 480 500 l 379 528 "}}}
